<?xml version="1.0" standalone="no"?>
<!DOCTYPE svg PUBLIC "-//W3C//DTD SVG 20010904//EN"
 "http://www.w3.org/TR/2001/REC-SVG-20010904/DTD/svg10.dtd">
<svg version="1.0" xmlns="http://www.w3.org/2000/svg"
 width="300.000000pt" height="300.000000pt" viewBox="0 0 300.000000 300.000000"
 preserveAspectRatio="xMidYMid meet">
<metadata>
Created by potrace 1.11, written by Peter Selinger 2001-2013
</metadata>
<g transform="translate(0.000000,300.000000) scale(0.100000,-0.100000)"
fill="#000000" stroke="none">
<path d="M1280 2416 c-55 -11 -120 -48 -120 -67 0 -6 11 -29 24 -52 40 -69 38
-87 -11 -106 -22 -9 -50 -24 -61 -34 -21 -19 -21 -45 -3 -122 7 -26 3 -35 -29
-65 -74 -72 -170 -224 -170 -271 0 -9 -12 -26 -26 -40 -36 -32 -57 -84 -49
-120 4 -16 10 -29 14 -29 3 0 7 -53 8 -118 1 -118 20 -225 50 -287 21 -43 97
-154 105 -155 7 0 63 -35 101 -62 14 -10 19 -32 23 -103 3 -49 7 -95 9 -102 2
-6 1 -14 -2 -17 -6 -6 -4 -222 3 -274 5 -41 40 -87 77 -101 15 -5 27 -14 27
-19 0 -5 11 -21 25 -36 l25 -27 -20 -67 c-12 -37 -30 -82 -40 -100 -11 -18
-20 -35 -20 -38 0 -2 142 -4 316 -4 l316 0 -5 27 c-3 16 -10 46 -15 69 -5 22
-5 50 -1 62 10 27 44 45 70 37 25 -8 69 -101 73 -154 l4 -36 74 -3 c84 -3 84
-3 65 78 -11 47 -66 173 -78 178 -8 3 12 62 21 62 3 0 5 31 5 69 -2 52 -7 76
-23 99 -25 34 -89 63 -124 57 -30 -6 -98 -36 -98 -44 0 -5 -102 -6 -130 -2 -6
1 -7 12 -15 176 -4 61 -7 124 -8 140 -4 53 23 87 103 128 41 21 77 41 80 45 3
4 23 20 44 36 74 55 163 163 171 206 1 3 5 28 10 55 4 28 10 57 12 65 12 43
10 293 -3 365 -16 97 -34 167 -45 180 -5 5 -9 15 -9 23 0 8 -13 34 -30 59 -16
24 -30 46 -30 49 0 9 -54 56 -90 78 -40 25 -128 54 -191 62 -30 4 -53 15 -73
35 -24 25 -36 29 -80 29 l-52 0 1 58 c0 62 -16 106 -45 122 -29 16 -101 18
-160 6z"/>
</g>
</svg>
